<svg width="73" height="73" viewBox="0 0 73 73" fill="none" xmlns="http://www.w3.org/2000/svg">
<mask id="mask0_66_120" style="mask-type:alpha" maskUnits="userSpaceOnUse" x="0" y="0" width="73" height="73">
<rect width="72.6077" height="72.6077" fill="#D9D9D9"/>
</mask>
<g mask="url(#mask0_66_120)">
<path d="M15.1266 57.4811H19.4377L49.0102 27.9086L44.6992 23.5975L15.1266 53.17V57.4811ZM9.07599 63.5317V50.6741L49.0102 10.8155C49.6153 10.2608 50.2834 9.83226 51.0145 9.52973C51.7456 9.22719 52.5146 9.07593 53.3213 9.07593C54.1281 9.07593 54.9096 9.22719 55.6659 9.52973C56.4223 9.83226 57.0778 10.2861 57.6324 10.8911L61.7922 15.1266C62.3973 15.6812 62.8385 16.3367 63.1158 17.093C63.3931 17.8494 63.5318 18.6057 63.5318 19.362C63.5318 20.1688 63.3931 20.9377 63.1158 21.6688C62.8385 22.4 62.3973 23.068 61.7922 23.6731L21.9336 63.5317H9.07599ZM46.8169 25.7908L44.6992 23.5975L49.0102 27.9086L46.8169 25.7908Z" fill="#2AC6F8"/>
</g>
</svg>
