<svg width="86" height="86" viewBox="0 0 86 86" fill="none" xmlns="http://www.w3.org/2000/svg">
<mask id="mask0_70_72" style="mask-type:alpha" maskUnits="userSpaceOnUse" x="0" y="0" width="86" height="86">
<rect width="86" height="86" fill="#D9D9D9"/>
</mask>
<g mask="url(#mask0_70_72)">
<path d="M25.0833 75.25C23.1125 75.25 21.4253 74.5483 20.0219 73.1448C18.6184 71.7413 17.9166 70.0542 17.9166 68.0833V21.5H14.3333V14.3333H32.25V10.75H53.75V14.3333H71.6666V21.5H68.0833V68.0833C68.0833 70.0542 67.3816 71.7413 65.9781 73.1448C64.5746 74.5483 62.8875 75.25 60.9166 75.25H25.0833ZM60.9166 21.5H25.0833V68.0833H60.9166V21.5ZM32.25 60.9167H39.4166V28.6667H32.25V60.9167ZM46.5833 60.9167H53.75V28.6667H46.5833V60.9167Z" fill="#FF4D4D"/>
</g>
</svg>
